<?xml version="1.0" standalone="no"?>
<!DOCTYPE svg PUBLIC "-//W3C//DTD SVG 20010904//EN"
 "http://www.w3.org/TR/2001/REC-SVG-20010904/DTD/svg10.dtd">
<svg version="1.0" xmlns="http://www.w3.org/2000/svg"
 width="413.000000pt" height="413.000000pt" viewBox="0 0 413.000000 413.000000"
 preserveAspectRatio="xMidYMid meet">
<metadata>
Created by potrace 1.11, written by Peter Selinger 2001-2013
</metadata>
<g transform="translate(0.000000,413.000000) scale(0.100000,-0.100000)"
fill="#000000" stroke="none">
<path d="M1909 4126 c-2 -2 -36 -6 -74 -10 -76 -7 -106 -12 -175 -27 -25 -6
-56 -13 -70 -15 -14 -2 -90 -25 -169 -51 -158 -50 -352 -143 -491 -234 -303
-198 -558 -489 -715 -813 -94 -196 -152 -372 -184 -561 -5 -33 -13 -76 -16
-95 -10 -56 -13 -399 -4 -465 5 -33 11 -85 15 -115 3 -30 8 -58 10 -61 2 -4 6
-23 9 -42 7 -42 55 -208 85 -292 11 -33 49 -118 84 -190 204 -416 539 -749
954 -947 204 -98 470 -176 668 -196 143 -14 448 -6 554 14 14 2 36 6 50 9 14
3 36 7 50 10 14 3 34 7 45 9 11 3 61 16 110 31 487 142 907 462 1175 895 85
135 206 407 226 504 2 10 8 33 13 50 15 44 41 171 49 236 4 30 7 172 7 315 0
234 -2 271 -24 375 -54 263 -170 543 -313 756 -41 61 -86 123 -99 139 -226
265 -427 425 -704 560 -202 98 -384 156 -600 192 -77 12 -456 28 -466 19z"/>
</g>
</svg>
